<svg width="40" height="40" viewBox="0 0 40 40" fill="none" xmlns="http://www.w3.org/2000/svg">
<path d="M16.2862 10.7144H8.85742L12.2997 7.27208C12.474 7.09781 12.7102 7 12.9566 7H20.0006L16.2862 10.7144Z" fill="#F09456"/>
<path d="M33.0006 7.9286V27.8934C33.0006 28.1856 32.8628 28.4608 32.6291 28.6363L30.2179 30.4449L30.2151 12.1073C30.2151 11.3381 29.5914 10.7147 28.8222 10.7147H21.8574L25.5718 7H32.072C32.5849 7 33.0006 7.4157 33.0006 7.9286Z" fill="#F09456"/>
<path d="M27.4291 12.5713H20.9289V15.3571H15.3574V12.5713H7.9286C7.4157 12.5713 7 12.987 7 13.4999V32.0718C7 32.5847 7.4157 33.0004 7.9286 33.0004H27.4291C27.942 33.0004 28.3577 32.5847 28.3577 32.0718V13.4999C28.3577 12.987 27.942 12.5713 27.4291 12.5713ZM20.4646 29.286H19.0717V26.5002H20.4646C21.2326 26.5002 21.8575 25.8753 21.8575 25.1073C21.8575 24.3394 21.2326 23.7144 20.4646 23.7144H16.286V25.4556C16.286 25.8515 16.0872 26.213 15.7728 26.39C15.4623 26.5646 15.0859 26.5315 14.8002 26.291L11.0858 23.1573C10.8518 22.9604 10.7144 22.6509 10.7144 22.3219C10.7144 21.9928 10.8518 21.6833 11.0858 21.4864L14.8002 18.3524C15.0819 18.1147 15.4577 18.076 15.7728 18.2534C16.0872 18.4304 16.286 18.792 16.286 19.1878V20.9287H20.4646C22.7688 20.9287 24.6433 22.8032 24.6433 25.1073C24.6433 27.4115 22.7688 29.286 20.4646 29.286Z" fill="#F09456"/>
</svg>
