<svg width="40" height="40" viewBox="0 0 40 40" fill="none" xmlns="http://www.w3.org/2000/svg">
<path d="M19.9999 6L7 11V13.9999C7 14.5999 7.4 14.9999 7.99999 14.9999H31.9998C32.5998 14.9999 32.9998 14.5999 32.9998 13.9999V11L19.9999 6ZM19.9999 12.9999C18.8999 12.9999 17.9999 12.0999 17.9999 11C17.9999 9.89997 18.8999 8.99997 19.9999 8.99997C21.0999 8.99997 21.9999 9.89997 21.9999 11C21.9999 12.0999 21.0999 12.9999 19.9999 12.9999Z" fill="#31ABC4"/>
<path d="M31.9998 30.9999H30.9998V19C30.9998 17.9 30.0998 17 28.9998 17C27.8998 17 26.9998 17.9 26.9998 19V30.9999H21.9999V19C21.9999 17.9 21.0999 17 19.9999 17C18.8999 17 17.9999 17.9 17.9999 19V30.9999H12.9999V19.1C12.9999 18 12 17 10.9 17C9.89998 17 8.99998 17.8 8.99998 18.9V30.9999H7.99999C7.4 30.9999 7 31.3999 7 31.9999V33.9999H32.9998V31.9999C32.9998 31.3999 32.5998 30.9999 31.9998 30.9999Z" fill="#31ABC4"/>
</svg>
