<svg width="40" height="40" viewBox="0 0 40 40" fill="none" xmlns="http://www.w3.org/2000/svg">
<path d="M17.6667 30.1816H7.06061C6.47515 30.1816 6 30.6093 6 31.1362V33.0453C6 33.5722 6.47515 33.9998 7.06061 33.9998H17.6667C18.2521 33.9998 18.7273 33.5722 18.7273 33.0453V31.1362C18.7273 30.6093 18.2521 30.1816 17.6667 30.1816Z" fill="#F09456"/>
<path d="M17.6667 23.8184H7.06061C6.47515 23.8184 6 24.246 6 24.7729V26.682C6 27.2089 6.47515 27.6365 7.06061 27.6365H17.6667C18.2521 27.6365 18.7273 27.2089 18.7273 26.682V24.7729C18.7273 24.246 18.2521 23.8184 17.6667 23.8184Z" fill="#F09456"/>
<path d="M17.6667 17.4541H7.06061C6.47515 17.4541 6 17.8817 6 18.4086V20.3177C6 20.8446 6.47515 21.2723 7.06061 21.2723H17.6667C18.2521 21.2723 18.7273 20.8446 18.7273 20.3177V18.4086C18.7273 17.8817 18.2521 17.4541 17.6667 17.4541Z" fill="#F09456"/>
<path d="M32.9391 30.1816H22.3331C21.7476 30.1816 21.2725 30.6093 21.2725 31.1362V33.0453C21.2725 33.5722 21.7476 33.9998 22.3331 33.9998H32.9391C33.5246 33.9998 33.9997 33.5722 33.9997 33.0453V31.1362C33.9997 30.6093 33.5246 30.1816 32.9391 30.1816Z" fill="#F09456"/>
<path d="M32.9391 23.8184H22.3331C21.7476 23.8184 21.2725 24.246 21.2725 24.7729V26.682C21.2725 27.2089 21.7476 27.6365 22.3331 27.6365H32.9391C33.5246 27.6365 33.9997 27.2089 33.9997 26.682V24.7729C33.9997 24.246 33.5246 23.8184 32.9391 23.8184Z" fill="#F09456"/>
<path d="M21.2687 21.2727H30.1819V12.3596H27.9536V17.469L16.4868 6L14.9092 7.57763L26.3782 19.0444H21.2687V21.2727Z" fill="#F09456"/>
</svg>
