<svg width="40" height="40" viewBox="0 0 40 40" fill="none" xmlns="http://www.w3.org/2000/svg">
<path d="M14 33.4998V30.4991C14 30.2231 14.224 29.999 14.5 29.999H25.5C25.776 29.999 26 30.2231 26 30.4991V33.4998C26 33.7759 25.776 34 25.5 34H14.5C14.224 34 14 33.7759 14 33.4998Z" fill="#F2696D"/>
<path d="M21 27.4989V24.4982C21 24.2221 21.224 23.998 21.5 23.998H33.5C33.776 23.998 34 24.2221 34 24.4982V27.4989C34 27.7749 33.776 27.999 33.5 27.999H21.5C21.224 27.999 21 27.7749 21 27.4989Z" fill="#F2696D"/>
<path d="M28.5 29.999H34V34H28.5C28.224 34 28 33.7759 28 33.4998V30.4991C28 30.2231 28.224 29.999 28.5 29.999Z" fill="#F2696D"/>
<path d="M12 30.4991V33.4998C12 33.7759 11.776 34 11.5 34H6V29.999H11.5C11.776 29.999 12 30.2231 12 30.4991Z" fill="#F2696D"/>
<path d="M18.5 27.999H6.5C6.224 27.999 6 27.7749 6 27.4989V24.4982C6 24.2221 6.224 23.998 6.5 23.998H18.5C18.776 23.998 19 24.2221 19 24.4982V27.4989C19 27.7749 18.776 27.999 18.5 27.999Z" fill="#F2696D"/>
<path d="M12.0013 21.9972C11.1053 20.1635 11.0083 17.8946 11.0083 16.5946C11.0083 13.2152 14.7196 10.8173 15.93 6.20587C15.9706 6.0505 16.1413 5.95648 16.2886 6.02016C18.6613 7.0434 19.9283 9.66234 21.2673 12.7661C21.3756 13.0171 21.714 13.0795 21.891 12.8711C22.892 11.6945 23.6786 10.2742 23.953 9.13155C23.9793 9.02153 24.0986 8.96551 24.2023 9.01086C27.8286 10.5942 28.9713 13.2719 28.994 15.9375C29.0063 17.3775 29.1063 19.5333 28.534 21.9972H26.0013C25.3533 19.556 24.3086 17.2955 23.13 16.0428C23.0596 15.9681 22.938 15.9735 22.8756 16.0552C22.3823 16.7006 21.62 18.141 21.158 18.9012C21.084 19.0229 20.912 19.0275 20.8286 18.9118C20.3026 18.1807 19.3756 16.8814 18.2533 16.0698C18.1063 15.9635 17.8986 15.9701 17.7586 16.0855C16.185 17.3818 15.403 19.6757 15.0013 21.9972H12.0013Z" fill="#F2696D"/>
</svg>
