<svg width="40" height="40" viewBox="0 0 40 40" fill="none" xmlns="http://www.w3.org/2000/svg">
<path d="M16.2578 13.161H19.6522C20.4984 13.161 21.1868 12.4726 21.1868 11.6264C21.1868 11.6202 21.1919 11.6151 21.198 11.6151H23.7416C25.0141 11.6151 26.0492 10.58 26.0492 9.30757C26.0492 8.03516 25.0141 7 23.7416 7H20.0341C19.1879 7 18.4994 7.68843 18.4994 8.53464C18.4994 8.54083 18.4944 8.54586 18.4882 8.54586H16.2578C14.9854 8.54586 13.9502 9.58102 13.9502 10.8534C13.9502 12.1258 14.9853 13.161 16.2578 13.161Z" fill="#31ABC4"/>
<path d="M25.0469 17.7941H30.2802L30.1505 14.7158H25.1766L25.0469 17.7941Z" fill="#31ABC4"/>
<path d="M30.6748 27.1596L30.3444 19.3174H24.9827L24.6523 27.1596H22.3097C22.2343 26.1492 21.9958 25.1646 21.5979 24.2239L20.1602 20.8259C19.953 20.3361 19.7976 19.832 19.6945 19.3174H9.6412C9.53806 19.832 9.38272 20.3361 9.17549 20.8259L7.73784 24.2239C7.24827 25.3812 7 26.605 7 27.8616V32.9994H32.9996V27.1596H30.6748Z" fill="#31ABC4"/>
<path d="M19.543 17.7819V14.7158H9.79312V17.7819C9.79312 17.786 9.79297 17.79 9.79297 17.7941H19.5431C19.5431 17.7901 19.543 17.786 19.543 17.7819Z" fill="#31ABC4"/>
</svg>
