<svg width="40" height="40" viewBox="0 0 40 40" fill="none" xmlns="http://www.w3.org/2000/svg">
<path d="M20 6C17.2311 6 14.5243 6.82109 12.222 8.35943C9.91973 9.89776 8.12532 12.0843 7.06569 14.6424C6.00607 17.2006 5.72882 20.0155 6.26901 22.7313C6.80921 25.447 8.14258 27.9416 10.1005 29.8995C12.0584 31.8574 14.553 33.1908 17.2687 33.731C19.9845 34.2712 22.7994 33.9939 25.3576 32.9343C27.9157 31.8747 30.1022 30.0803 31.6406 27.778C33.1789 25.4757 34 22.7689 34 20C34 16.287 32.525 12.726 29.8995 10.1005C27.274 7.475 23.713 6 20 6ZM20 10.04C20.9889 10.04 21.9556 10.3332 22.7779 10.8827C23.6001 11.4321 24.241 12.213 24.6194 13.1266C24.9978 14.0402 25.0969 15.0455 24.9039 16.0154C24.711 16.9854 24.2348 17.8763 23.5355 18.5755C22.8363 19.2748 21.9454 19.751 20.9755 19.9439C20.0056 20.1369 19.0002 20.0378 18.0866 19.6594C17.173 19.281 16.3921 18.6401 15.8427 17.8178C15.2933 16.9956 15 16.0289 15 15.04C15 13.7182 15.5233 12.4502 16.4556 11.5133C17.3879 10.5763 18.6533 10.0466 19.975 10.04H20ZM26.55 27.54C24.7326 29.1152 22.405 29.977 20 29.965C17.6109 29.9621 15.303 29.0975 13.5 27.53C13.2787 27.3348 13.1014 27.0948 12.98 26.8258C12.8586 26.5568 12.7958 26.2651 12.7958 25.97C12.7958 25.6749 12.8586 25.3832 12.98 25.1142C13.1014 24.8452 13.2787 24.6052 13.5 24.41C14.913 23.1845 16.6487 22.3913 18.5 22.125C18.613 22.1119 18.7276 22.1268 18.8335 22.1683C18.9395 22.2098 19.0336 22.2767 19.1077 22.3631C19.1817 22.4495 19.2334 22.5527 19.2582 22.6638C19.2831 22.7748 19.2802 22.8903 19.25 23L18.115 26.04C18.0788 26.1841 18.0809 26.3352 18.1213 26.4782C18.1616 26.6212 18.2388 26.7511 18.345 26.855L19.15 27.645C19.3762 27.867 19.6805 27.9914 19.9975 27.9914C20.3145 27.9914 20.6188 27.867 20.845 27.645L21.645 26.855C21.7491 26.7529 21.8246 26.6253 21.8641 26.485C21.9036 26.3446 21.9056 26.1964 21.87 26.055C21.625 25.08 21.055 24.305 20.73 23C20.6988 22.8885 20.6959 22.7709 20.7217 22.658C20.7475 22.5451 20.801 22.4405 20.8775 22.3535C20.954 22.2666 21.051 22.2001 21.1598 22.1602C21.2685 22.1203 21.3854 22.1082 21.5 22.125C23.3654 22.3839 25.1159 23.1776 26.54 24.41C26.7589 24.608 26.9331 24.8503 27.051 25.1209C27.169 25.3914 27.2281 25.6839 27.2243 25.979C27.2205 26.2741 27.154 26.5651 27.0291 26.8325C26.9042 27.0999 26.7239 27.3377 26.5 27.53L26.55 27.54Z" fill="#859DE0"/>
</svg>
