<svg width="40" height="40" viewBox="0 0 40 40" fill="none" xmlns="http://www.w3.org/2000/svg">
<path d="M6.29164 22.6058L9.0126 17.8404L7.42319 16.9276C7.33738 16.8777 7.269 16.8026 7.22733 16.7124C7.18565 16.6223 7.17269 16.5216 7.19019 16.4238C7.2077 16.3261 7.25484 16.2361 7.3252 16.1661C7.39557 16.0961 7.48578 16.0493 7.58359 16.0323L12.868 15.1428C13.2302 15.0791 13.6033 15.1438 13.9228 15.326C14.2423 15.5081 14.4881 15.7961 14.6179 16.1402L16.4989 21.1651C16.5312 21.2576 16.5347 21.3578 16.5088 21.4524C16.4829 21.5469 16.429 21.6314 16.3541 21.6946C16.2791 21.7578 16.1868 21.7968 16.0893 21.8064C15.9917 21.816 15.8935 21.7958 15.8077 21.7484L14.2241 20.8297L12.8389 23.2445L6 23.2736C6.06967 23.04 6.1676 22.8157 6.29164 22.6058ZM8.59556 29.5642C8.86019 30.0202 9.24017 30.3985 9.69731 30.6611C10.1545 30.9237 10.6727 31.0614 11.1999 31.0603H16.1927C16.3065 31.0604 16.4192 31.0376 16.5241 30.9933C16.6289 30.9491 16.7239 30.8843 16.8033 30.8027C16.8826 30.7211 16.9449 30.6245 16.9863 30.5185C17.0277 30.4124 17.0474 30.2992 17.0443 30.1854L16.9655 25.8838C16.9617 25.66 16.8699 25.4466 16.71 25.29C16.5501 25.1334 16.3349 25.046 16.111 25.0468L6.06416 25.0847C6.12301 25.2665 6.19919 25.4423 6.29164 25.6096L8.59556 29.5642ZM29.4563 30.9816L26.0004 25.073H23.2153V23.2415C23.212 23.1433 23.1788 23.0483 23.1203 22.9694C23.0617 22.8904 22.9804 22.8312 22.8874 22.7995C22.7943 22.7678 22.6937 22.7653 22.5992 22.7921C22.5046 22.819 22.4204 22.874 22.3579 22.9499L18.9632 27.0941C18.7305 27.3766 18.6032 27.7312 18.6032 28.0973C18.6032 28.4633 18.7305 28.818 18.9632 29.1005L22.3754 33.2301C22.4392 33.3059 22.5247 33.3603 22.6204 33.3859C22.7161 33.4116 22.8173 33.4073 22.9105 33.3736C23.0036 33.3399 23.0842 33.2784 23.1413 33.1975C23.1984 33.1165 23.2293 33.02 23.2299 32.921V31.0895L28.7243 31.0807C28.9666 31.0768 29.2075 31.0435 29.4417 30.9816H29.4563ZM33.5976 25.6009C33.8612 25.1442 34 24.6262 34 24.099C34 23.5717 33.8612 23.0537 33.5976 22.597L31.0807 18.2779C30.9645 18.0848 30.7764 17.9457 30.5577 17.891C30.3391 17.8363 30.1076 17.8706 29.9142 17.9863L26.2221 20.1939C26.029 20.3102 25.8899 20.4983 25.8352 20.717C25.7805 20.9356 25.8148 21.167 25.9304 21.3605L30.9787 30.0367C31.1074 29.8916 31.2216 29.7343 31.3199 29.5671L33.5976 25.6009ZM28.0827 16.9393L29.9521 11.9202C29.985 11.8273 29.9887 11.7266 29.9628 11.6315C29.9369 11.5364 29.8826 11.4515 29.8072 11.388C29.7317 11.3246 29.6387 11.2858 29.5406 11.2766C29.4425 11.2675 29.3439 11.2885 29.258 11.3369L27.6744 12.2556L24.9155 7.50193C24.7931 7.29027 24.6452 7.09439 24.4752 6.91865L21.0805 12.8622L22.4804 15.2711L20.8968 16.1898C20.812 16.2403 20.7447 16.3156 20.704 16.4055C20.6632 16.4954 20.6508 16.5956 20.6686 16.6927C20.6864 16.7898 20.7334 16.8791 20.8034 16.9487C20.8733 17.0184 20.9629 17.0649 21.0601 17.0822L26.3475 17.9571C26.71 18.0159 27.0816 17.9464 27.3983 17.7606C27.7151 17.5748 27.9571 17.2844 28.0827 16.9393ZM22.3083 6H17.7355C17.2081 6.00111 16.6903 6.14103 16.2342 6.4057C15.778 6.67037 15.3996 7.05046 15.137 7.50776L12.6522 11.8561C12.5964 11.9539 12.5606 12.0619 12.5468 12.1738C12.533 12.2856 12.5415 12.399 12.5719 12.5075C12.6023 12.6161 12.6539 12.7174 12.7238 12.8059C12.7936 12.8943 12.8803 12.9679 12.9789 13.0226L16.7439 15.1049C16.8414 15.1609 16.9491 15.1971 17.0607 15.2113C17.1723 15.2255 17.2856 15.2175 17.394 15.1877C17.5025 15.1578 17.604 15.1068 17.6926 15.0375C17.7812 14.9683 17.8553 14.8821 17.9104 14.7841L22.8887 6.06999C22.698 6.02774 22.5036 6.0043 22.3083 6Z" fill="#5BB95B"/>
</svg>
