<svg width="40" height="40" viewBox="0 0 40 40" fill="none" xmlns="http://www.w3.org/2000/svg">
<path d="M11.5032 12.7174C11.5032 13.0642 11.4002 13.4032 11.2074 13.6914C11.0145 13.9797 10.7405 14.2042 10.4199 14.3365C10.0993 14.4688 9.74672 14.503 9.40671 14.4347C9.0667 14.3664 8.75462 14.1987 8.51 13.9529C8.26538 13.7071 8.09923 13.3942 8.03262 13.0538C7.966 12.7135 8.00192 12.3611 8.13581 12.0411C8.2697 11.7212 8.49554 11.4483 8.78471 11.2568C9.07388 11.0654 9.41337 10.9641 9.76017 10.9658C10.2232 10.9681 10.6666 11.1536 10.9932 11.4819C11.3198 11.8101 11.5032 12.2543 11.5032 12.7174ZM9.76017 17.115C9.41289 17.1133 9.07295 17.2149 8.78353 17.4068C8.49411 17.5987 8.26828 17.8724 8.13473 18.193C8.00118 18.5135 7.96594 18.8666 8.03349 19.2072C8.10103 19.5479 8.26832 19.8608 8.51408 20.1061C8.75985 20.3515 9.07301 20.5183 9.41377 20.5852C9.75453 20.6522 10.1075 20.6164 10.4279 20.4823C10.7482 20.3483 11.0215 20.122 11.213 19.8323C11.4044 19.5425 11.5055 19.2024 11.5032 18.8551C11.5002 18.3941 11.3155 17.9527 10.9892 17.627C10.6629 17.3012 10.2213 17.1172 9.76017 17.115ZM9.76017 23.2641C9.41373 23.2641 9.07508 23.3669 8.78703 23.5593C8.49899 23.7518 8.27448 24.0254 8.14191 24.3454C8.00933 24.6655 7.97464 25.0177 8.04223 25.3574C8.10982 25.6972 8.27664 26.0093 8.5216 26.2543C8.76657 26.4992 9.07867 26.6661 9.41845 26.7337C9.75822 26.8012 10.1104 26.7666 10.4305 26.634C10.7505 26.5014 11.0241 26.2769 11.2166 25.9889C11.409 25.7008 11.5118 25.3622 11.5118 25.0157C11.5121 24.7855 11.4671 24.5574 11.3793 24.3445C11.2914 24.1317 11.1624 23.9383 10.9997 23.7753C10.8371 23.6124 10.6438 23.4831 10.4311 23.3949C10.2184 23.3067 9.99043 23.2613 9.76017 23.2613V23.2641ZM14.5549 13.8347H21.4327L21.9242 11.5973H14.5492C14.2525 11.5973 13.968 11.7152 13.7582 11.925C13.5484 12.1348 13.4305 12.4193 13.4305 12.716C13.4305 13.0127 13.5484 13.2972 13.7582 13.507C13.968 13.7168 14.2525 13.8347 14.5492 13.8347H14.5549ZM20.5698 17.7465H14.5492C14.2525 17.7465 13.968 17.8643 13.7582 18.0741C13.5484 18.2839 13.4305 18.5684 13.4305 18.8651C13.4305 19.1618 13.5484 19.4464 13.7582 19.6562C13.968 19.866 14.2525 19.9838 14.5492 19.9838H20.0783L20.5698 17.7465ZM13.4262 25.0129C13.427 25.3089 13.5449 25.5927 13.7543 25.802C13.9637 26.0114 14.2474 26.1294 14.5435 26.1301H18.7153L19.2068 23.8928H14.5492C14.2526 23.8935 13.9684 24.0119 13.759 24.2218C13.5496 24.4318 13.4319 24.7163 13.4319 25.0129H13.4262ZM20.6183 28.3503C20.506 27.9715 20.4912 27.5705 20.5755 27.1845L24.8902 7.61122C24.948 7.34793 25.0572 7.09862 25.2115 6.87755C25.3658 6.65649 25.5621 6.46799 25.7892 6.32283C26.0164 6.17767 26.2699 6.07871 26.5353 6.03159C26.8008 5.98447 27.0729 5.99011 27.3361 6.04821L30.4793 6.7397C31.0113 6.85667 31.4752 7.17985 31.7693 7.63838C32.0634 8.0969 32.1636 8.65333 32.048 9.18565L27.7333 28.7589C27.6436 29.1461 27.4567 29.5041 27.1904 29.799L23.7986 33.6594C23.6803 33.794 23.528 33.8944 23.3576 33.9502C23.1872 34.006 23.005 34.0151 22.83 33.9766C22.655 33.938 22.4935 33.8533 22.3623 33.7312C22.2312 33.609 22.1351 33.454 22.0842 33.2822L20.6183 28.3503ZM22.2642 27.9989L22.9471 30.2848L24.2644 30.5705L25.9446 28.6646C26.0169 28.5831 26.068 28.485 26.0931 28.3789L26.1703 28.0274C24.8433 27.917 23.5372 27.6287 22.2871 27.1702L22.2013 27.5531C22.1679 27.7044 22.1902 27.8627 22.2642 27.9989Z" fill="#859DE0"/>
</svg>
