<svg width="40" height="40" viewBox="0 0 40 40" fill="none" xmlns="http://www.w3.org/2000/svg">
<path d="M31.5369 11.3509H12.2952L11.2187 8.25604C11.2187 7.85237 10.9496 7.58325 10.546 7.4487L7.85482 6.10313C7.31659 5.83401 6.50925 6.10313 6.10557 6.77591C5.83646 7.4487 6.10557 8.25604 6.6438 8.52515L8.79672 9.60161C10.2768 13.9074 9.4695 10.9472 12.2952 25.0757L12.6436 26.7022C12.7423 27.1633 13.1498 27.4928 13.6213 27.493C15.6931 27.4939 17.812 27.4977 17.812 27.4977H23.7326C25.141 27.4977 26.8407 27.4954 27.7865 27.494C28.2197 27.4933 28.6022 27.2137 28.7353 26.8015L29.2494 25.2102L32.8825 13.1001C33.017 12.1582 32.4788 11.3509 31.5369 11.3509ZM18.4848 24.8066L21.7142 14.042H24.2708L21.0414 24.8066H18.4848ZM19.0231 14.042L15.7937 24.8066H15.1209L12.968 14.042H19.0231ZM26.5583 24.8066H24.0017L27.2311 14.042H29.7876L26.5583 24.8066Z" fill="#5BB95B"/>
<circle cx="27" cy="31" r="2" fill="#5BB95B"/>
<circle cx="14" cy="31" r="2" fill="#5BB95B"/>
</svg>
