<svg width="40" height="40" viewBox="0 0 40 40" fill="none" xmlns="http://www.w3.org/2000/svg">
<path d="M31.5369 11.3509H12.2952L11.2187 8.25604C11.2187 7.85237 10.9496 7.58325 10.546 7.4487L7.85482 6.10313C7.31659 5.83401 6.50925 6.10313 6.10557 6.77591C5.83646 7.4487 6.10557 8.25604 6.6438 8.52515L8.79672 9.60161C10.2768 13.9074 9.4695 10.9472 12.2952 25.0757L12.6436 26.7022C12.7423 27.1633 13.1498 27.4928 13.6213 27.493C15.6931 27.4939 17.812 27.4977 17.812 27.4977H23.7326C25.141 27.4977 26.8407 27.4954 27.7865 27.494C28.2197 27.4933 28.6022 27.2137 28.7353 26.8015L29.2494 25.2102L32.8825 13.1001C33.017 12.1582 32.4788 11.3509 31.5369 11.3509Z" fill="#F09456"/>
<circle cx="27" cy="31" r="2" fill="#F09456"/>
<circle cx="14" cy="31" r="2" fill="#F09456"/>
<path d="M18.444 20.0588C18.7283 20.1961 18.9734 20.3431 19.1793 20.5C19.3852 20.6569 19.6156 20.8775 19.8705 21.1618L21.2823 22.7059L19.9293 24L15.3999 19L19.9293 14L21.2823 15.2941L19.8705 16.8382C19.6156 17.1225 19.3852 17.3431 19.1793 17.5C18.9734 17.6569 18.7283 17.8039 18.444 17.9412H25.7675V20.0588H18.444Z" fill="#181E2F"/>
</svg>
