<svg width="40" height="40" viewBox="0 0 40 40" fill="none" xmlns="http://www.w3.org/2000/svg">
<path d="M15.6727 8.00166C14.8798 7.97529 14.1086 8.26367 13.5276 8.80384C12.9465 9.34402 12.6027 10.0921 12.5713 10.8849C12.5713 11.1311 12.6691 11.3673 12.8433 11.5415C13.0174 11.7156 13.2536 11.8134 13.4999 11.8134C13.7461 11.8134 13.9823 11.7156 14.1565 11.5415C14.3306 11.3673 14.4284 11.1311 14.4284 10.8849C14.4601 10.585 14.6083 10.3095 14.8409 10.1176C15.0736 9.92574 15.3723 9.83281 15.6727 9.8588H24.327C24.6275 9.83281 24.9261 9.92574 25.1588 10.1176C25.3915 10.3095 25.5396 10.585 25.5713 10.8849C25.5713 11.1311 25.6691 11.3673 25.8433 11.5415C26.0174 11.7156 26.2536 11.8134 26.4999 11.8134C26.7461 11.8134 26.9823 11.7156 27.1565 11.5415C27.3306 11.3673 27.4284 11.1311 27.4284 10.8849C27.397 10.0921 27.0532 9.34402 26.4721 8.80384C25.8911 8.26367 25.1199 7.97529 24.327 8.00166H15.6727Z" fill="#5BB95B"/>
<path d="M7.97037 17.2875H32.0296C32.287 17.2875 32.5338 17.1853 32.7158 17.0033C32.8978 16.8213 33 16.5745 33 16.3172V15.5511C33 15.0265 32.7916 14.5235 32.4207 14.1525C32.0498 13.7816 31.5467 13.5732 31.0221 13.5732H8.97787C8.45331 13.5732 7.95023 13.7816 7.57931 14.1525C7.20839 14.5235 7.00001 15.0265 7.00001 15.5511V16.3125C6.9994 16.4403 7.02405 16.567 7.07254 16.6853C7.12103 16.8036 7.19241 16.9111 7.28258 17.0017C7.37274 17.0923 7.47992 17.1642 7.59795 17.2132C7.71599 17.2623 7.84255 17.2875 7.97037 17.2875Z" fill="#5BB95B"/>
<path d="M8.97786 32.1436H31.0221C31.5467 32.1436 32.0498 31.9352 32.4207 31.5642C32.7916 31.1933 33 30.6903 33 30.1657V20.0025C33 19.7747 32.9095 19.5562 32.7484 19.3951C32.5873 19.234 32.3689 19.1436 32.1411 19.1436H23.5982C23.3827 19.1436 23.1761 19.2292 23.0237 19.3815C22.8713 19.5339 22.7857 19.7406 22.7857 19.9561C22.8022 20.655 22.5626 21.3359 22.1119 21.8703C21.6612 22.4048 21.0306 22.7561 20.3389 22.8578C19.9457 22.9061 19.5467 22.8698 19.1685 22.7516C18.7904 22.6334 18.4419 22.4358 18.1461 22.1722C17.8504 21.9085 17.6143 21.5848 17.4536 21.2227C17.2929 20.8606 17.2113 20.4683 17.2143 20.0721V19.9561C17.2143 19.7406 17.1287 19.5339 16.9763 19.3815C16.8239 19.2292 16.6173 19.1436 16.4018 19.1436H7.85893C7.63113 19.1436 7.41265 19.234 7.25157 19.3951C7.09049 19.5562 7 19.7747 7 20.0025V30.1657C7 30.6903 7.20838 31.1933 7.5793 31.5642C7.95022 31.9352 8.4533 32.1436 8.97786 32.1436Z" fill="#5BB95B"/>
<path d="M19.7868 19.1731C19.6045 19.1731 19.4297 19.2455 19.3009 19.3744C19.172 19.5032 19.0996 19.678 19.0996 19.8603V20.0738C19.1373 20.289 19.2497 20.4841 19.417 20.6246C19.5843 20.7651 19.7958 20.8422 20.0143 20.8422C20.2327 20.8422 20.4442 20.7651 20.6115 20.6246C20.7788 20.4841 20.8912 20.289 20.9289 20.0738V19.8463C20.9289 19.6641 20.8565 19.4893 20.7276 19.3604C20.5988 19.2316 20.424 19.1592 20.2418 19.1592L19.7868 19.1731Z" fill="#5BB95B"/>
</svg>
