<svg width="40" height="40" viewBox="0 0 40 40" fill="none" xmlns="http://www.w3.org/2000/svg">
<path d="M0 24.5811V29.8069C0 32.0004 1.74194 33.7423 3.87097 33.7423H36.129C38.2581 33.7423 40 32.0004 40 29.8069V24.5811H0Z" fill="#4AA657"/>
<path d="M36.129 6.25781H3.87097C1.74194 6.25781 0 7.99975 0 10.1933V15.3546V15.4191V24.7094H40V15.4191V15.3546V10.1933C40 7.99975 38.2581 6.25781 36.129 6.25781Z" fill="#C8313E"/>
<path d="M36.1286 33.7423C38.2577 33.7423 39.9996 32.0004 39.9996 29.8069V24.5811H25.4189L36.1286 33.7423Z" fill="#00914F"/>
<path d="M36.1292 6.25781H3.87109L14.5163 15.2901L25.5485 24.6449H40.0001V15.4191V15.3546V10.1933C40.0001 7.99975 38.2582 6.25781 36.1292 6.25781Z" fill="#B21F31"/>
<path d="M36.1292 6.25781H3.87109L33.484 15.2901L40.0001 17.2901V15.3546V15.2901V10.1288C40.0001 7.99975 38.2582 6.25781 36.1292 6.25781Z" fill="#991128"/>
<path d="M40 29.8066C40 32.0002 38.2581 33.7421 36.129 33.7421H3.87097C1.74194 33.7421 0 32.0002 0 29.8066" fill="#007C41"/>
<g opacity="0.8">
<path opacity="0.8" d="M9.74231 15.7411H9.48425V16.1927H9.16167V16.6443H8.9036V16.1927H8.64554V15.7411H8.38747V15.2895H8.9036V14.8379H8.12941V15.2895H7.87135V15.7411H7.61328V16.1927H7.87135V16.6443H8.12941V17.096H8.38747V17.5476H8.64554V17.9992H8.9036V18.4508H9.16167V17.9992H9.48425V17.5476H9.74231V17.096H10.0004V16.6443H9.74231V16.1927H10.0004V15.2895H9.74231V15.7411Z" fill="white"/>
<path opacity="0.8" d="M4.12916 17.5476H4.38722V17.9992H4.64529V18.4508H4.96787V17.9992H5.22593V17.5476H5.484V17.096H5.74206V16.6443H6.00013V16.1927H6.25819V15.7411H6.00013V15.2895H5.74206V14.8379H4.96787V15.2895H5.484V15.7411H5.22593V16.1927H4.96787V16.6443H4.64529V16.1927H4.38722V15.7411H4.12916V15.2895H3.87109V16.1927H4.12916V16.6443H3.87109V17.096H4.12916V17.5476Z" fill="white"/>
<path opacity="0.8" d="M4.12916 7.61265H4.38722V7.16104H4.64529V6.70943H4.96787V6.25781H3.87109V6.70943H4.12916V7.16104H3.87109V8.06426H4.12916V7.61265Z" fill="white"/>
<path opacity="0.8" d="M9.74206 8.96749H9.484V9.4191H9.22593V9.87071H8.96787V10.3223H8.7098V10.7739H8.38722V10.3223H8.12916V9.87071H7.87109V9.4191H7.61303V8.96749H7.35496V8.51588H7.0969V8.06426H7.35496V7.61265H7.61303V7.16104H7.87109V6.70943H8.12916V6.25781H7.0969V7.16104H6.96787H6.90335H6.77432V6.25781H5.74206V6.70943H6.00013V7.16104H6.25819V7.61265H6.51625V8.06426H6.77432V8.51588H6.51625V8.96749H6.25819V9.4191H6.00013V9.87071H5.74206V10.3223H5.484V10.7739H5.22593V10.3223H4.96787V9.87071H4.64529V9.4191H4.38722V8.96749H4.12916V8.51588H3.87109V9.4191H4.12916V9.87071H3.87109V11.2256H4.12916V10.7739H4.38722V10.3223H4.64529V10.7739H4.90335V11.2256H5.16142V11.6772H4.96787V12.1288H4.64529V12.5804H4.38722V12.1288H4.12916V11.6772H3.87109V13.032H4.12916V13.4836H3.87109V14.3868H4.12916V13.9352H4.38722V13.4836H4.64529V13.032H4.90335V12.5804H5.16142V12.1288H5.41948V12.5804H5.67755V13.032H5.93561V13.4836H6.19367V13.9352H6.45174V14.3868H6.7098V14.8385H6.83884H6.90335H7.0969V14.3868H7.35496V13.9352H7.61303V13.4836H7.87109V13.032H8.12916V12.5804H8.38722V12.1288H8.64529V12.5804H8.90335V13.032H9.16142V13.4836H9.41948V13.9352H9.67754V14.3868H9.93561V13.4836H9.67754V13.032H9.93561V11.6772H9.67754V12.1288H9.41948V12.5804H9.16142V12.1288H8.90335V11.6772H8.64529V11.2256H8.90335V10.7739H9.16142V10.3223H9.41948V10.7739H9.67754V11.2256H9.93561V9.87071H9.67754V9.4191H9.93561V8.51588H9.67754V8.96749H9.74206ZM6.77432 9.4191H6.90335H6.96787H7.0969V10.3223H6.96787H6.90335H6.77432V9.4191ZM6.51625 11.6772V12.1288H6.25819V12.5804H6.00013V12.1288H5.74206V11.6772H5.484V11.2256H5.74206V10.7739H6.00013V10.3223H6.25819V10.7739H6.51625V11.2256H6.77432V11.6772H6.51625ZM7.0969 13.4836H6.96787H6.90335H6.77432V12.5804H6.90335H6.96787H7.0969V13.4836ZM8.38722 11.6772H8.12916V12.1288H7.87109V12.5804H7.61303V12.1288H7.35496V11.6772H7.0969V11.2256H7.35496V10.7739H7.61303V10.3223H7.87109V10.7739H8.12916V11.2256H8.38722V11.6772Z" fill="white"/>
<path opacity="0.8" d="M10.0001 6.70943V6.25781H8.90332V6.70943H9.16138V7.16104H9.48396V7.61265H9.74203V8.06426H10.0001V7.16104H9.74203V6.70943H10.0001Z" fill="white"/>
<path opacity="0.8" d="M4.64529 32.8388H4.38722V32.3872H4.12916V31.9355H3.87109V32.8388H4.12916V33.2904H3.87109V33.742H4.96787V33.2904H4.64529V32.8388Z" fill="white"/>
<path opacity="0.8" d="M4.12916 24.2575H4.38722V23.8059H4.64529V23.3543H4.96787V23.8059H5.22593V24.2575H5.484V24.7091H4.96787V25.1608H5.74206V24.7091H6.00013V24.2575H6.25819V23.8059H6.00013V23.3543H5.74206V22.9027H5.484V22.4511H5.22593V21.9995H4.96787V21.5479H4.64529V21.9995H4.38722V22.4511H4.12916V22.9027H3.87109V23.3543H4.12916V23.8059H3.87109V24.7091H4.12916V24.2575Z" fill="white"/>
<path opacity="0.8" d="M9.74203 32.3872H9.48396V32.8388H9.16138V33.2904H8.90332V33.742H10.0001V33.2904H9.74203V32.8388H10.0001V31.9355H9.74203V32.3872Z" fill="white"/>
<path opacity="0.8" d="M6.96825 16.6445H6.83921V17.0961H6.58115V17.5478H6.32308V17.9994H6.06502V18.451H5.74244V18.9026H5.48438V19.9994V20.0639V21.1607H5.74244V21.6123H6.0005V22.0639H6.25857V22.5155H6.51663V22.9671H6.7747V23.4187H6.90373H6.96825H7.09728V22.9671H7.35534V22.5155H7.61341V22.0639H7.87147V21.6123H8.12954V21.1607H8.3876V20.0639V19.9994V18.9026H8.12954V18.451H7.87147V17.9994H7.61341V17.5478H7.35534V17.0961H7.09728V16.6445H6.96825ZM6.0005 19.9349V19.9994V20.1929H5.74244V19.9994V19.9349V19.7413H6.0005V19.9349ZM7.87147 20.0639V19.9994V19.8058H8.12954V19.9994V20.0639V20.2574H7.87147V20.0639ZM6.7747 17.5478H6.90373H6.96825H7.09728V17.9994H6.96825H6.90373H6.7747V17.5478ZM7.09728 22.451H6.96825H6.90373H6.7747V21.9994H6.90373H6.96825H7.09728V22.451ZM7.35534 18.9026V18.451H7.61341V19.3542H7.35534V19.8058H7.09728V19.9994V20.0639V20.2574H7.35534V20.6445H7.61341V21.5478H7.35534V21.0961H7.09728V20.6445H6.96825H6.90373H6.7747V21.0961H6.51663V21.5478H6.25857V20.6445H6.51663V20.1929H6.7747V19.9994V19.9349V19.7413H6.51663V19.3542H6.25857V18.451H6.51663V18.9026H6.7747V19.3542H6.90373H6.96825H7.09728V18.9026H7.35534Z" fill="white"/>
<path opacity="0.8" d="M4.12916 21.0963H4.38722V20.6447H4.64529V20.1931H4.96787V20.0641V19.935V19.806H4.64529V19.3544H4.38722V18.9028H4.12916V18.4512H3.87109V21.548H4.12916V21.0963Z" fill="white"/>
<path opacity="0.8" d="M9.74203 18.9028H9.48396V19.3544H9.16138V19.806H8.90332V19.935V20.0641V20.1931H9.16138V20.6447H9.48396V21.0963H9.74203V21.548H10.0001V18.4512H9.74203V18.9028Z" fill="white"/>
<path opacity="0.8" d="M9.74206 26.0644H9.484V26.516H9.22593V26.9676H8.96787V27.4192H8.7098V27.8708H8.38722V27.4192H8.12916V26.9676H7.87109V26.516H7.61303V26.0644H7.35496V25.6127H7.0969V25.1611H6.96787H6.90335H6.77432V25.6127H6.51625V26.0644H6.25819V26.516H6.00013V26.9676H5.74206V27.4192H5.484V27.8708H5.22593V27.4192H4.96787V26.9676H4.64529V26.516H4.38722V26.0644H4.12916V25.6127H3.87109V26.516H4.12916V26.9676H3.87109V28.3224H4.12916V27.8708H4.38722V27.4192H4.64529V27.8708H4.90335V28.3224H5.16142V28.774H4.96787V29.2256H4.64529V29.6773H4.38722V29.2256H4.12916V28.774H3.87109V30.1289H4.12916V30.5805H3.87109V31.4837H4.12916V31.0321H4.38722V30.5805H4.64529V30.1289H4.90335V29.6773H5.16142V29.2256H5.41948V29.6773H5.67755V30.1289H5.93561V30.5805H6.19367V31.0321H6.45174V31.4837H6.7098V31.9353H6.45174V32.3869H6.19367V32.8386H5.93561V33.2902H5.74206V33.7418H6.77432V32.8386H6.90335H6.96787H7.0969V33.7418H8.12916V33.2902H7.87109V32.8386H7.61303V32.3869H7.35496V31.9353H7.0969V31.4837H7.35496V31.0321H7.61303V30.5805H7.87109V30.1289H8.12916V29.6773H8.38722V29.2256H8.64529V29.6773H8.90335V30.1289H9.16142V30.5805H9.41948V31.0321H9.67754V31.4837H9.93561V30.5805H9.67754V30.1289H9.93561V28.774H9.67754V29.2256H9.41948V29.6773H9.16142V29.2256H8.90335V28.774H8.64529V28.3224H8.90335V27.8708H9.16142V27.4192H9.41948V27.8708H9.67754V28.3224H9.93561V26.9676H9.67754V26.516H9.93561V25.6127H9.67754V26.0644H9.74206ZM6.77432 26.516H6.90335H6.96787H7.0969V27.4192H6.96787H6.90335H6.77432V26.516ZM6.51625 28.774V29.2256H6.25819V29.6773H6.00013V29.2256H5.74206V28.774H5.484V28.3224H5.74206V27.8708H6.00013V27.4192H6.25819V27.8708H6.51625V28.3224H6.77432V28.774H6.51625ZM7.0969 30.5805H6.96787H6.90335H6.77432V29.6773H6.90335H6.96787H7.0969V30.5805ZM8.38722 28.774H8.12916V29.2256H7.87109V29.6773H7.61303V29.2256H7.35496V28.774H7.0969V28.3224H7.35496V27.8708H7.61303V27.4192H7.87109V27.8708H8.12916V28.3224H8.38722V28.774Z" fill="white"/>
<path opacity="0.8" d="M9.74231 22.4511H9.48425V21.9995H9.16167V21.5479H8.9036V21.9995H8.64554V22.4511H8.38747V22.9027H8.12941V23.3543H7.87135V23.8059H7.61328V24.2575H7.87135V24.7091H8.12941V25.1608H8.9036V24.7091H8.38747V24.2575H8.64554V23.8059H8.9036V23.3543H9.16167V23.8059H9.48425V24.2575H9.74231V24.7091H10.0004V23.8059H9.74231V23.3543H10.0004V22.9027H9.74231V22.4511Z" fill="white"/>
</g>
</svg>
