<svg width="40" height="40" viewBox="0 0 40 40" fill="none" xmlns="http://www.w3.org/2000/svg">
<g clip-path="url(#clip0)">
<path d="M0 24.5166V29.8069C0 32.0005 1.74194 33.5489 3.87097 33.5489H36.129C38.2581 33.5489 40 32.0005 40 29.8069V24.5166H0Z" fill="#F8D12E"/>
<path d="M36.129 6.45215H3.87097C1.74194 6.45215 0 8.00054 0 10.1941V15.4844H40V10.1941C40 8.00054 38.2581 6.45215 36.129 6.45215Z" fill="#333333"/>
<path d="M40 15.4834H0V24.5156H40V15.4834Z" fill="#DB2727"/>
<path d="M35.9996 33.5489C38.1286 33.5489 39.9996 32.0005 39.9996 29.8069V24.5166H25.4189L35.9996 33.5489Z" fill="#DBB30F"/>
<path d="M36.1292 6.45215H3.87109L14.5808 15.4844H40.0001V10.1941C40.0001 8.00054 38.2582 6.45215 36.1292 6.45215Z" fill="#202121"/>
<path d="M25.4843 24.5156H40.0005V15.4834H14.5166L25.4843 24.5156Z" fill="#C10E0E"/>
<path d="M36.1292 6.45215H3.87109L33.7421 15.4844H40.0001V10.1941C40.0001 8.00054 38.2582 6.45215 36.1292 6.45215Z" fill="black"/>
<path d="M39.9996 17.2898V15.4834H33.4189L39.9996 17.2898Z" fill="#A00808"/>
<path d="M40 29.7422C40 32.1293 38.2581 33.5487 36.129 33.5487H3.87097C1.74194 33.5487 0 31.8713 0 29.6777" fill="#D89F12"/>
</g>
<defs>
<clipPath id="clip0">
<rect width="40" height="40" fill="white"/>
</clipPath>
</defs>
</svg>
