<svg width="40" height="40" viewBox="0 0 40 40" fill="none" xmlns="http://www.w3.org/2000/svg">
<g clip-path="url(#clip0)">
<path d="M0 24.5166V29.8069C0 32.0005 1.74194 33.5489 3.87097 33.5489H36.129C38.2581 33.5489 40 32.0005 40 29.8069V24.5166H0Z" fill="#E73B36"/>
<path d="M36.129 6.45117H3.87097C1.74194 6.45117 0 7.99956 0 10.1931V15.4834H40V10.1931C40 7.99956 38.2581 6.45117 36.129 6.45117Z" fill="#F0F7F6"/>
<path d="M40 15.4834H0V24.5157H40V15.4834Z" fill="#3757A6"/>
<path d="M36.0001 33.5489C38.1291 33.5489 40.0001 32.0005 40.0001 29.8069V24.5166H25.4194L36.0001 33.5489Z" fill="#D31C1C"/>
<path d="M36.1292 6.45117H3.87109L14.5808 15.4834H40.0001V10.1931C40.0001 7.99956 38.2582 6.45117 36.1292 6.45117Z" fill="#DFF2EF"/>
<path d="M25.4839 24.5157H40V15.4834H14.5161L25.4839 24.5157Z" fill="#20448E"/>
<path d="M36.1292 6.45117H3.87109L33.7421 15.4834H40.0001V10.1931C40.0001 7.99956 38.2582 6.45117 36.1292 6.45117Z" fill="#CAEAE4"/>
<path d="M40.0001 17.2899V15.4834H33.4194L40.0001 17.2899Z" fill="#103577"/>
<path d="M40 29.7422C40 32.1293 38.2581 33.5487 36.129 33.5487H3.87097C1.74194 33.5487 0 31.8713 0 29.6777" fill="#C41010"/>
</g>
<defs>
<clipPath id="clip0">
<rect width="40" height="40" fill="white"/>
</clipPath>
</defs>
</svg>
